inDegrees=no
num_controls=7
num_derivatives=13
num_iterations=123
num_multipliers=7
num_parameters=0
num_slacks=7
num_states=26
objective=5.422098
objective_accelerations=0.542456
objective_balance=0.099562
objective_effort=0.416351
objective_height=4.302122
objective_ligament=0.061608
solver_duration=1454.122783
status=Solve_Succeeded
success=true
DataType=double
version=3
OpenSimVersion=4.4-2022-07-23-0e9fedc
endheader
time	/jointset/ground_pelvis/pelvis_tilt/value	/jointset/ground_pelvis/pelvis_tx/value	/jointset/ground_pelvis/pelvis_ty/value	/jointset/hip_l/hip_flexion_l/value	/jointset/hip_l/hip_adduction_l/value	/jointset/hip_l/hip_rotation_l/value	/jointset/back/lumbar_extension/value	/jointset/patellofemoral_l/patellar_flexion_l/value	/jointset/knee_l/knee_flexion_l/value	/jointset/knee_l/knee_adduction_l/value	/jointset/knee_l/knee_rotation_l/value	/jointset/ankle_l/ankle_angle_l/value	/jointset/subtalar_l/subtalar_angle_l/value	/jointset/ground_pelvis/pelvis_tilt/speed	/jointset/ground_pelvis/pelvis_tx/speed	/jointset/ground_pelvis/pelvis_ty/speed	/jointset/hip_l/hip_flexion_l/speed	/jointset/hip_l/hip_adduction_l/speed	/jointset/hip_l/hip_rotation_l/speed	/jointset/back/lumbar_extension/speed	/jointset/patellofemoral_l/patellar_flexion_l/speed	/jointset/knee_l/knee_flexion_l/speed	/jointset/knee_l/knee_adduction_l/speed	/jointset/knee_l/knee_rotation_l/speed	/jointset/ankle_l/ankle_angle_l/speed	/jointset/subtalar_l/subtalar_angle_l/speed	/forceset/tau_hip_flexion_l	/forceset/tau_hip_adduction_l	/forceset/tau_hip_rotation_l	/forceset/tau_knee_flexion_l	/forceset/tau_ankle_angle_l	/forceset/tau_subtalar_angle_l	/forceset/tau_lumbar_extension	lambda_cid13_p0	lambda_cid13_p1	lambda_cid13_p2	lambda_cid13_p3	lambda_cid13_p4	lambda_cid13_p5	lambda_cid14_p0	/jointset/ground_pelvis/pelvis_tilt/accel	/jointset/ground_pelvis/pelvis_tx/accel	/jointset/ground_pelvis/pelvis_ty/accel	/jointset/hip_l/hip_flexion_l/accel	/jointset/hip_l/hip_adduction_l/accel	/jointset/hip_l/hip_rotation_l/accel	/jointset/back/lumbar_extension/accel	/jointset/patellofemoral_l/patellar_flexion_l/accel	/jointset/knee_l/knee_flexion_l/accel	/jointset/knee_l/knee_adduction_l/accel	/jointset/knee_l/knee_rotation_l/accel	/jointset/ankle_l/ankle_angle_l/accel	/jointset/subtalar_l/subtalar_angle_l/accel	gamma_cid13_p0	gamma_cid13_p1	gamma_cid13_p2	gamma_cid13_p3	gamma_cid13_p4	gamma_cid13_p5	gamma_cid14_p0
0	-0.160165024310308	0.05857373916826576	0.8979986670415845	0.3774920279260975	-0.2591382239614479	-0.2729491166081627	-0.0126506700172305	0.03223623128432194	0.03223623128433527	-0.1745328464830183	0.174507018805861	-0.04231376238535053	-0.009262898428775278	0	0	0	0	0	0	0	0	0	0	0	0	0	0.1553402833748583	-0.07678476081424643	-0.05418548746148503	-0.3224669573594766	0.3412485816289463	-0.05706022564730195	-0.09582747960568151	66.77156981492703	6.74375102478955	5.771428632562621	-14.67313860162129	-593.547104972589	-65.70895354784216	-39.07359822743194	-4.100007318438325	-1.857228915787346	-1.020656519944768	11.46744198484476	-1.152719036989585	2.849408224088135	-5.483307864823244	8.265819733374938	8.265819733374826	0.06610005638004245	0.02303772078298716	0.9858633504224468	-0.9512549741598835	-3.334746925825538e-08	7.054397642210486e-08	7.237243025729516e-08	1.135838241273632e-08	1.503370668790711e-08	-1.623493984952849e-08	-1.085667787828717e-08
0.01	-0.1603630110591681	0.05848147236056721	0.8979487426419702	0.3780518157762616	-0.2591955718525653	-0.2728071486381598	-0.01292581385157915	0.03264025824076423	0.03264025824079429	-0.1745312739483775	0.1745055874815187	-0.04226746498514339	-0.00931085659236041	-0.03934995868446052	-0.01842795095077815	-0.009950163329648643	0.1114756618001142	-0.01140732167844203	0.02826002545172525	-0.0546717161783497	0.08047528461351813	0.08047528461353287	0.000328191155647611	-0.0002718160440282182	0.009162923061430534	-0.009551951082066136	0.1467150451732011	-0.08688540846397592	-0.05213257286567028	-0.3099365812904882	0.3206130616222559	-0.03940808967108027	-0.08932726880940596	60.7922593081617	0.4141623960594622	6.449514912949602	-11.104703322838	-594.278750692646	-77.5496861041198	-39.08509654896452	-3.81538750078088	-1.831764317995961	-0.9769857447222415	10.91533614654034	-1.125419440221038	2.794255824782974	-5.405545895433375	7.888868996635882	7.888868996637256	0.01825163116454197	-0.05013125283518009	0.8670206583728229	-0.9512319936504647	-4.790122284488228e-08	9.106800244747283e-08	9.310433743598458e-08	2.12599564102126e-08	-7.154163389959483e-08	5.538582961682278e-09	-1.507660630528563e-08
0.02	-0.1609470768661967	0.05820568881671145	0.8978003587080076	0.3797119018182772	-0.25936512910187	-0.2723865891898042	-0.01373696332790911	0.03383913527751204	0.03383913527749877	-0.1745260049022301	0.1745018699996501	-0.04213243557943974	-0.009453147630448758	-0.07721581166250804	-0.0367033472314419	-0.01969190686972577	0.2200596383580425	-0.02244187163494014	0.05571829566620335	-0.1072011284007017	0.1589700160788829	0.1589700160788883	0.000739301751412726	-0.0004572315216462526	0.01774640109766355	-0.01886657490104382	0.1380898069709066	-0.09698605611374414	-0.05007965826966511	-0.2974062052220919	0.2999775416153184	-0.02175595369495436	-0.08282705801336479	54.88330887923841	-5.9275497144377	7.129313837002689	-7.649168725090694	-593.9299963137512	-89.29356939752297	-39.11916946860016	-3.803186177158719	-1.82671798176207	-0.978972562030812	10.8891049364068	-1.0781646926051	2.689057176638854	-5.054847073625274	7.869709103744207	7.869709103739292	0.08268394439505036	0.04031783406532945	0.8699743453845847	-0.9037895215460089	-6.245497643150919e-08	1.115920284728408e-07	1.13836244614674e-07	3.116153040768887e-08	-1.581169744870968e-07	2.731210577289304e-08	-1.929653473228409e-08
0.03	-0.1619031491990418	0.057748766371693	0.8975554451854276	0.3824432449311736	-0.259643031736232	-0.2716953935057435	-0.01506234785393499	0.03581312150947758	0.03581312150944168	-0.1745161976167939	0.1744967183472438	-0.04191337899084031	-0.009687028610113134	-0.1137973304390445	-0.05456859238254032	-0.02926659005227771	0.3256666005749695	-0.03307066577469642	0.08239444077364888	-0.1575151491366709	0.2354857080604008	0.2354857080603594	0.001219760028132871	-0.000565863906099219	0.02607202963052675	-0.02784174647646878	0.1324008525125769	-0.09071689394749254	-0.04927460409390998	-0.2922666313656943	0.2954269850995816	-0.02469262737138361	-0.07812407763492565	53.33558764240261	-4.512669110589844	7.053959634425775	-7.40763244488912	-593.9626937445609	-85.5257084179873	-39.17482426079073	-3.555443045317065	-1.749539096394906	-0.9431170309304611	10.31512410957441	-1.045056406855907	2.637917780680411	-4.965585428671327	7.491274783826235	7.49127478382126	0.0303947978827238	-0.03538241007227051	0.8149203237353313	-0.8842297310013927	-8.014634605353785e-08	1.154358480997584e-07	1.409757805066124e-07	4.575910212378242e-08	-2.507751276566511e-07	2.552388778449497e-08	-2.453874965252698e-08
0.04	-0.1632189983829306	0.05711656921224417	0.8972155046641165	0.3862143841155139	-0.2600251862384458	-0.2707412314500659	-0.01688005375825876	0.03854201976895066	0.03854201976893633	-0.174501652142327	0.1744906946439544	-0.04161085347360326	-0.01000863105662061	-0.1491711819128473	-0.07175829011751979	-0.03869730661600512	0.4280188526013275	-0.04329224520229571	0.108311569996461	-0.2056654040764666	0.3099524215808148	0.3099524215807549	0.00168693944763179	-0.0006316417054322103	0.03444018682337114	-0.03641086827038054	0.1267118980551893	-0.08444773178137495	-0.04846954991754527	-0.2871270575088894	0.2908764285839536	-0.02762930104792686	-0.07342109725575503	51.85286105923825	-3.107366950675373	6.978077284797233	-7.274682917014041	-593.0149543578015	-81.66435158699207	-39.25084976667351	-3.561652716614427	-1.691608498536633	-0.9501792382660575	10.23816289829284	-0.9967217501753637	2.537253999712317	-4.62209391439221	7.459913411523499	7.459913411524214	0.08002817294751741	0.04888875108943305	0.8784800773823582	-0.8225795652446557	-9.79024087896985e-08	1.189357459452647e-07	1.682474324544942e-07	6.04534985351052e-08	-3.435586996423303e-07	2.324986070744515e-08	-2.980204264479554e-08
0.05	-0.1648829057714537	0.05631553330854867	0.8967817588685199	0.3909938702245472	-0.2605073201253566	-0.269531677718097	-0.01916825630734707	0.04200571416360766	0.04200571416355037	-0.1744822260067712	0.1744843035903254	-0.04122469964094683	-0.01041377657476716	-0.1834065154225984	-0.08836546983066269	-0.04804315521452733	0.527376697596718	-0.05305098506646042	0.1334780852878458	-0.2516336275688272	0.382441676177815	0.3824416761777452	0.002207621140812993	-0.000648563046940136	0.04275772644960826	-0.04454594294187982	0.1195951804617536	-0.08184350625006453	-0.04726545687620268	-0.2800373825507372	0.281931401895246	-0.02544847779651719	-0.06783244405302048	49.141923498001	-3.608758887273722	7.091052233844327	-6.134302493414221	-592.1398970456921	-81.49994605452943	-39.34571066974768	-3.32391348414095	-1.632747376382881	-0.9255525391717816	9.70933076650725	-0.9529365563036541	2.488162018965858	-4.532964845213188	7.091720310936063	7.09172031093277	0.0395211433870948	-0.02730506103160573	0.8034567694233872	-0.7981644014990813	-1.092270895484669e-07	1.337295620515296e-07	1.812130181658013e-07	7.106764476663532e-08	-4.016810934702423e-07	3.126831071631201e-08	-3.165954832038834e-08
0.06	-0.1668830544580598	0.05535093067398737	0.8962548016132438	0.3967518818769989	-0.2610845387012816	-0.2680740964882494	-0.0219058967470005	0.04618395886968606	0.04618395886968258	-0.1744573064590813	0.174477678826478	-0.04075635723918418	-0.0108981114363051	-0.2164194415725297	-0.1044716362906801	-0.05733959855192877	0.6237239612457225	-0.06230918300137734	0.1579170695838611	-0.2955529822036605	0.4528624838608198	0.4528624838607352	0.002785621869277683	-0.0006783837588858487	0.05087790064307205	-0.05224873694928265	0.1124784628692238	-0.07923928071873845	-0.0460613638341842	-0.2729477075918775	0.2729863752068541	-0.02326765454503063	-0.06224379084985283	46.4882750180105	-4.117783853626919	7.202507151346438	-5.094002255287716	-590.3927387730254	-81.25039521817047	-39.45779742087553	-3.317171244652828	-1.591405847910382	-0.9402981860419997	9.63604662901562	-0.8966133643266603	2.391747800638552	-4.212320142888505	7.04622402872456	7.046224028724309	0.09149198000247329	0.04630887700193377	0.8390069908288976	-0.736123432425988	-1.202809752766082e-07	1.489989115582475e-07	1.93576243193463e-07	8.150999099059521e-08	-4.583440692704588e-07	3.9720128181428e-08	-3.337365242475269e-08
0.07000000000000001	-0.1692077464964405	0.05422786753673157	0.8956349628995146	0.4034590046584024	-0.2617518055687642	-0.2663758807865127	-0.02507209516319837	0.05105643627988184	0.05105643627981863	-0.1744263568162404	0.174470927495958	-0.04020758355332794	-0.01145724111118439	-0.2483249530733258	-0.1200447105443228	-0.06662894027648635	0.7171890687359646	-0.07106136593064813	0.1815968662444153	-0.3373485363754821	0.5212761445273951	0.5212761445274239	0.003393698734083942	-0.0006695363914881084	0.05884943082990248	-0.05950518431546705	0.1054028788225484	-0.07590345996889658	-0.04498331956965015	-0.2670163322191649	0.2659390126072025	-0.0222057297609962	-0.05664761657667787	44.38420249260476	-4.249336492236482	7.267760321881718	-4.461417822575764	-588.9569079291548	-80.24000551990243	-39.5852026557607	-3.098146143650513	-1.525799690841932	-0.9234639339588733	9.124997631677022	-0.8521175758291156	2.336687087156012	-4.112448358850626	6.685415733937659	6.685415733953649	0.04391324083680034	-0.02150203643865017	0.7721077341004894	-0.709647514455408	-1.27536258797891e-07	1.494717875362795e-07	2.063957432837987e-07	8.89101622839911e-08	-4.962599688649702e-07	3.985351147618236e-08	-3.550966444785989e-08
